Coordinates
version=1
nRows=16
nColumns=34
inDegrees=no

Units are S.I. units (second, meters, Newtons, ...)
If the header above contains a line with 'inDegrees', this indicates whether rotational values are in degrees (yes) or radians (no).

endheader
time	pelvis_tilt	pelvis_list	pelvis_rotation	pelvis_tx	pelvis_ty	pelvis_tz	hip_flexion_r	hip_adduction_r	hip_rotation_r	knee_angle_r	ankle_angle_r	subtalar_angle_r	mtp_angle_r	hip_flexion_l	hip_adduction_l	hip_rotation_l	knee_angle_l	ankle_angle_l	subtalar_angle_l	mtp_angle_l	lumbar_extension	lumbar_bending	lumbar_rotation	arm_flex_r	arm_add_r	arm_rot_r	elbow_flex_r	pro_sup_r	arm_flex_l	arm_add_l	arm_rot_l	elbow_flex_l	pro_sup_l
0	0.0261416	0.0305667	0.15149	-0.160825	0.915928	-0.276407	0.491959	-0.139899	-0.0350794	0.180477	0.240429	0.358382	0	-0.360517	-0.0193747	0.190518	0.257724	0.407517	0.410712	0	-0.143689	-0.0334738	-0.214882	-0.358474	-0.143909	-0.175197	0.61609	2.09	-0.0772957	-0.208041	-0.167541	1.01415	2.09
0.01	0.0205296	0.0311913	0.150602	-0.146126	0.914982	-0.274162	0.501329	-0.137031	-0.0414925	0.205408	0.202921	0.372584	0	-0.350545	-0.0218393	0.175334	0.288361	0.379034	0.429747	0	-0.137299	-0.0339977	-0.216427	-0.357259	-0.143338	-0.175531	0.614289	2.09	-0.087068	-0.203059	-0.176125	0.998731	2.09
0.02	0.0175365	0.0270785	0.149307	-0.130322	0.914268	-0.271686	0.506113	-0.129104	-0.0534408	0.229428	0.170768	0.390271	0	-0.343514	-0.0319594	0.1505	0.318293	0.348811	0.459799	0	-0.130522	-0.0294386	-0.216651	-0.358751	-0.143363	-0.176098	0.613074	2.09	-0.0986519	-0.19724	-0.184337	0.981757	2.09
0.03	0.0155188	0.0209406	0.146793	-0.1142	0.913824	-0.269049	0.509781	-0.117933	-0.0620679	0.254665	0.145027	0.402661	0	-0.335438	-0.044178	0.126709	0.350988	0.313298	0.484609	0	-0.123957	-0.0225947	-0.215018	-0.36111	-0.143593	-0.177047	0.61255	2.09	-0.109977	-0.190935	-0.19189	0.962771	2.09
0.04	0.0134266	0.013223	0.142803	-0.0980282	0.91363	-0.266257	0.514216	-0.104131	-0.0677959	0.282466	0.128451	0.411767	0	-0.322521	-0.0584764	0.0999815	0.390541	0.273089	0.509492	0	-0.117143	-0.0139906	-0.211312	-0.363882	-0.143992	-0.178227	0.612877	2.09	-0.120506	-0.184197	-0.198821	0.941606	2.09
0.05	0.0111529	0.00415353	0.137273	-0.0819278	0.913702	-0.263328	0.519302	-0.0875238	-0.0682663	0.312461	0.121619	0.414492	0	-0.303986	-0.0745098	0.0728064	0.437799	0.22661	0.529784	0	-0.110297	-0.00381688	-0.205506	-0.366885	-0.144606	-0.179428	0.61427	2.09	-0.130017	-0.177028	-0.205339	0.918426	2.09
0.06	0.00875547	-0.00609943	0.1304	-0.0659948	0.914034	-0.260298	0.524468	-0.0680257	-0.0624085	0.343618	0.123626	0.408899	0	-0.279795	-0.0921259	0.0475119	0.492502	0.172772	0.541293	0	-0.10374	0.00778574	-0.19783	-0.370007	-0.145508	-0.18035	0.616941	2.09	-0.138406	-0.169449	-0.211759	0.893673	2.09
0.07	0.00631217	-0.0172353	0.122521	-0.0503142	0.914596	-0.257223	0.528951	-0.0459725	-0.0507126	0.374447	0.132362	0.395068	0	-0.250492	-0.11096	0.0260798	0.553254	0.111456	0.54098	0	-0.0977913	0.0205027	-0.188642	-0.373164	-0.146755	-0.180683	0.621045	2.09	-0.145622	-0.161524	-0.218391	0.867922	2.09
0.08	0.00376519	-0.028535	0.113973	-0.034954	0.915342	-0.254175	0.532691	-0.0227282	-0.0358363	0.404461	0.145537	0.376375	0	-0.216946	-0.130007	0.00989206	0.617786	0.0443177	0.527935	0	-0.0926066	0.0335142	-0.178294	-0.376315	-0.14834	-0.180183	0.626637	2.09	-0.151689	-0.153389	-0.225454	0.841811	2.09
0.09	0.00213979	-0.0411702	0.105284	-0.0200241	0.916459	-0.251284	0.531999	0.00265681	-0.018971	0.428224	0.158716	0.353385	0	-0.181217	-0.150319	-0.000799123	0.68331	-0.0245909	0.504395	0	-0.0894646	0.0484017	-0.167106	-0.378747	-0.150728	-0.178511	0.633112	2.09	-0.155908	-0.144657	-0.232927	0.814909	2.09
0.1	0.00113621	-0.0522105	0.0974947	-0.00531364	0.917715	-0.248538	0.528346	0.0258307	-0.00359106	0.44868	0.17351	0.331984	0	-0.144594	-0.168497	-0.00468449	0.747129	-0.0885307	0.474675	0	-0.0876882	0.0613872	-0.15625	-0.381401	-0.152943	-0.175951	0.640769	2.09	-0.159611	-0.136521	-0.240828	0.789176	2.09
0.11	0.000792528	-0.0614433	0.0907796	0.00906898	0.919198	-0.246062	0.521431	0.046072	0.00959631	0.464802	0.187844	0.313224	0	-0.107657	-0.183489	-0.00204879	0.807807	-0.140094	0.443023	0	-0.0874175	0.0723634	-0.145815	-0.383703	-0.155112	-0.172593	0.648818	2.09	-0.162376	-0.128923	-0.248751	0.764249	2.09
0.12	0.00309225	-0.0664615	0.0861014	0.0232417	0.921197	-0.24392	0.507992	0.059848	0.0181173	0.475325	0.203745	0.30384	0	-0.0748605	-0.192516	0.00639914	0.861078	-0.173132	0.416082	0	-0.0906913	0.0786134	-0.137158	-0.384731	-0.156633	-0.167972	0.655609	2.09	-0.164489	-0.122629	-0.25675	0.740445	2.09
0.13	0.00196645	-0.0730741	0.0826943	0.036716	0.922954	-0.242223	0.497675	0.0729507	0.0225388	0.482886	0.216592	0.297093	0	-0.0332947	-0.20103	0.0204061	0.91721	-0.184662	0.387578	0	-0.0908777	0.0867234	-0.128563	-0.385916	-0.158996	-0.163845	0.663389	2.09	-0.165293	-0.116077	-0.263527	0.717376	2.09
0.14	0.0032991	-0.0739916	0.0817854	0.0500043	0.925323	-0.240871	0.481893	0.0787308	0.0256404	0.486504	0.229937	0.29434	0	0.00300041	-0.201683	0.0373476	0.963201	-0.176967	0.363847	0	-0.0940988	0.0883265	-0.122513	-0.385305	-0.160034	-0.159094	0.668337	2.09	-0.165767	-0.111619	-0.269298	0.695346	2.09
0.15	0.00342243	-0.0764847	0.0838844	0.062984	0.927626	-0.239932	0.465386	0.0842337	0.0258158	0.485552	0.241829	0.292109	0	0.043456	-0.202354	0.0581408	1.0075	-0.154263	0.337746	0	-0.0956268	0.0917097	-0.118506	-0.385079	-0.161278	-0.155282	0.673502	2.09	-0.166199	-0.107606	-0.273493	0.675074	2.09
